<?xml version="1.0" encoding="UTF-8"?>
<svg id="_Слой_1" data-name="Слой 1" xmlns="http://www.w3.org/2000/svg" xmlns:xlink="http://www.w3.org/1999/xlink" viewBox="0 0 4000 2500">
  <defs>
    <style>
      .cls-1, .cls-2 {
        fill: #fff;
      }

      .cls-3 {
        fill: #f37168;
      }

      .cls-4, .cls-5 {
        fill: #9ec8ff;
      }

      .cls-6 {
        fill: #93bbf0;
      }

      .cls-7 {
        fill: #75a1de;
      }

      .cls-2, .cls-5 {
        opacity: .5;
      }

      .cls-8 {
        fill: #f5dc95;
      }

      .cls-9 {
        fill: #cce2ff;
      }

      .cls-10 {
        fill: #f09959;
      }

      .cls-11 {
        fill: #2e5b9a;
      }

      .cls-12 {
        fill: #74b570;
      }

      .cls-13 {
        fill: #94bdf2;
      }

      .cls-14 {
        fill: #7a4e34;
      }

      .cls-15 {
        fill: #6791c9;
      }

      .cls-16 {
        fill: #a8ceff;
      }

      .cls-17 {
        fill: #ffb8b3;
      }

      .cls-18 {
        fill: #e38540;
      }

      .cls-19 {
        fill: #fae8b6;
      }

      .cls-20, .cls-21 {
        fill: none;
      }

      .cls-22 {
        fill: #9cd499;
      }

      .cls-23 {
        fill: #d54a41;
      }

      .cls-24 {
        fill: #f2e5de;
      }

      .cls-21 {
        clip-path: url(#clippath);
      }

      .cls-25 {
        fill: #a86b48;
      }

      .cls-26 {
        fill: #303c60;
      }

      .cls-27 {
        fill: #96cfe0;
      }

      .cls-28 {
        fill: #3e6bab;
      }

      .cls-29 {
        fill: #f39892;
      }

      .cls-30 {
        fill: #e7f3fe;
      }

      .cls-31 {
        fill: #a2dff2;
      }

      .cls-32 {
        fill: #4476bd;
      }
    </style>
    <clipPath id="clippath">
      <path class="cls-20" d="m462.56,363.19c-78.56,0-142.24,63.68-142.24,142.24s63.68,142.24,142.24,142.24,142.24-63.68,142.24-142.24-63.68-142.24-142.24-142.24Zm0,217.59c-41.61,0-75.35-33.73-75.35-75.35s33.73-75.35,75.35-75.35,75.35,33.73,75.35,75.35-33.73,75.35-75.35,75.35Z"/>
    </clipPath>
  </defs>
  <rect class="cls-1" width="4000" height="2500"/>
  <g>
    <path class="cls-30" d="m674.23,345.98c515.63-191.42,1039.69-22.19,1395.12,346.41,355.43,368.6,1101.36-254.41,1496.96,113.59,269.98,251.14,146.32,896.83-223.87,1176.5-503.17,380.13-2377.71,391.54-2688.73,261.1-531.48-222.9-3.39-635.68-251.48-1031.37-292.69-466.82,44.14-781.64,272-866.23Z"/>
    <path class="cls-9" d="m3576.66,2133.69c-258.11-12.62-1136.14,8.76-1403.18,17.09-267.04,8.33-577.01-11-738.02-39.42-161.01-28.42-1091.73,2.42-1049.49,78.84,42.24,76.42,414.67,34.19,837.03,64.9,422.35,30.72,1372.24-3.84,1586.5,0,214.26,3.84,410.74-7.68,686.86-23.04,276.12-15.36,229.91-91.07,80.3-98.38Z"/>
    <g>
      <path class="cls-5" d="m3016.88,451.52c1.02-9.12,1.56-18.39,1.56-27.78,0-4.96-.16-9.87-.45-14.76l-45.91-14.85c-2.83-19.35-8.38-37.82-16.25-55l30.44-37.46c-7.04-12.39-15.11-24.11-24.11-35.05l-45.91,14.98c-13.38-13.67-28.67-25.46-45.45-34.94l2.61-48.24c-12.81-5.83-26.21-10.6-40.08-14.2l-28.35,39.12c-11.05-1.86-22.4-2.84-33.98-2.84-7.89,0-15.68.47-23.34,1.34l-26.25-40.57c-14.06,2.86-27.69,6.91-40.78,12.05l.06,48.31c-17.29,8.59-33.17,19.56-47.24,32.49l-45.04-17.38c-9.57,10.46-18.26,21.74-25.94,33.73l28.42,39.02c-8.8,16.78-15.33,34.93-19.16,54.06l-46.62,12.41c-1.02,9.12-1.56,18.39-1.56,27.78,0,4.96.16,9.88.45,14.76l45.91,14.85c2.83,19.35,8.38,37.82,16.25,55l-30.44,37.46c7.04,12.39,15.11,24.11,24.11,35.05l45.91-14.98c13.38,13.67,28.67,25.46,45.45,34.94l-2.61,48.24c12.81,5.83,26.21,10.61,40.08,14.2l28.35-39.12c11.05,1.86,22.4,2.84,33.98,2.84,7.89,0,15.68-.47,23.34-1.34l26.25,40.57c14.06-2.86,27.69-6.91,40.78-12.05l-.06-48.31c17.29-8.59,33.18-19.56,47.24-32.49l45.04,17.38c9.57-10.46,18.26-21.74,25.94-33.73l-28.42-39.02c8.8-16.78,15.33-34.93,19.16-54.06l46.62-12.41Zm-245.88,69.27c-53.6,0-97.05-43.45-97.05-97.05s43.45-97.05,97.05-97.05,97.05,43.45,97.05,97.05-43.45,97.05-97.05,97.05Z"/>
      <path class="cls-1" d="m2903.37,535.8c-1.13,0-2.26-.38-3.19-1.16-2.12-1.77-2.41-4.92-.65-7.04,24.19-29.08,37.51-65.97,37.51-103.86,0-18.15-2.97-35.96-8.82-52.96-.9-2.61.49-5.46,3.1-6.36,2.61-.9,5.46.49,6.36,3.1,6.21,18.04,9.37,36.96,9.37,56.21,0,40.22-14.14,79.38-39.82,110.26-.99,1.19-2.41,1.8-3.85,1.8Z"/>
      <path class="cls-1" d="m2889.32,306.74c-1.23,0-2.46-.45-3.43-1.36-16.25-15.3-35.08-26.9-55.96-34.48-2.6-.94-3.94-3.81-3-6.41s3.81-3.94,6.41-2.99c22.16,8.04,42.15,20.35,59.4,36.6,2.01,1.89,2.11,5.06.21,7.07-.98,1.04-2.31,1.57-3.64,1.57Z"/>
      <path class="cls-1" d="m2733.36,266.29c-2.24,0-4.27-1.51-4.84-3.78-.68-2.68.95-5.4,3.62-6.07,13.77-3.48,28.02-5.24,42.36-5.24,2.76,0,5,2.24,5,5s-2.24,5-5,5c-13.51,0-26.94,1.66-39.91,4.94-.41.1-.82.15-1.23.15Z"/>
    </g>
    <rect class="cls-5" x="1074.89" y="181.98" width="1546.45" height="928.88"/>
    <rect class="cls-1" x="1150.23" y="204.65" width="1454.92" height="852.73"/>
    <g>
      <path class="cls-26" d="m2390.87,645.34c69.33-66,187.83-64.5,185.33,36s5.8,109.95,34.33,162.67c99,182.93-118,172.17-208.5,178.17s-83-164.5-67-259,35.55-98.52,55.83-117.83Z"/>
      <path class="cls-32" d="m2423.19,1221.58c-22.23,186.67-62.62,324.67-67.12,413.16-4.5,88.5-22.5,436.94-22.5,436.94,0,0,49.5-3.46,54-10.96s93-203.99,88.5-325.48c-4.5-121.49,88.39-306.22,88.39-306.22l-22.39-181.25-118.87-26.18Z"/>
      <path class="cls-28" d="m2444.54,1302.84l-34.76,14.55c-9.45,59.19-19.93,112.41-29.14,159.62,55.32,35.77,83.9,154.92,96.14,227.77,6.24-81.51,44.7-180.01,68.56-234.48l-100.8-167.45Z"/>
      <path class="cls-32" d="m2605.06,1202.76s74.92,95.57,72.57,203.99c-3.58,165.05-21.58,212.17,9.74,385.23,12.23,67.59-27,288.7-27,288.7,0,0-33.51,2.63-51.51-6.33,1.5-16.25-21.66-280.52-66.76-402.01-21.84-58.83-52.54-223.59-69.04-318.08-16.5-94.5-19.5-113.99-13.5-113.99s145.49-37.5,145.49-37.5Z"/>
      <path class="cls-10" d="m2178.21,937.34s3.33-49.45-2-64.73c-5.33-15.27-51.33-28.61-51.33-28.61,0,0-2,70.67,2.67,79.33s32,33.33,32,33.33l18.67-19.33Z"/>
      <path class="cls-31" d="m2436.86,901.31c-105.33,113.37-139.7,161.07-147.7,161.07-25-44.13-108.04-137.46-108.04-137.46l-35.41,22.76s81.82,213.77,133.82,215.98c52,2.21,157.69-73.72,159.04-82.44,1.34-8.72-1.71-179.91-1.71-179.91Z"/>
      <path class="cls-27" d="m2327.01,1152.58c51.52-20.98,110.56-64.85,111.56-71.36,1.34-8.72-1.71-179.91-1.71-179.91-22.96,24.71-43.01,46.63-60.4,65.8-18.87,70.27-17.64,146.77-49.45,185.46Z"/>
      <path class="cls-31" d="m2543.87,826.68s100.79,50.52,122.79,139.95c22,89.43-43.1,199.91-51.1,258.87-8,58.96-191.99,69.33-191.99,6.22s-46.1-188.94-43.5-221.65c6.1-76.76,118.31-170.79,118.31-170.79l45.49-12.59Z"/>
      <path class="cls-10" d="m2514.58,710.83l43.27,133.43s-46.2,35.65-125.27,121.42c3.07-57.07,50.89-119.29,50.89-119.29l-32.73-126,63.85-9.56Z"/>
      <path class="cls-18" d="m2534.76,773.06l-20.18-62.24-63.85,9.56,32.73,126s-3.19,5.09-7.91,13.1c30.83-22.89,49.75-51.37,59.2-86.43Z"/>
      <path class="cls-10" d="m2490.74,740.94c-11.67,42.46-56.86,65.84-88.98,57.01-32.11-8.83-38.98-46.51-27.31-88.97,11.67-42.46,47.16-69.73,79.28-60.9,32.11,8.83,48.68,50.4,37.01,92.86Z"/>
      <path class="cls-31" d="m2415.53,1171.89c14.01,88.79-38.01,278.74-38.01,278.74,0,0,31.02,7.05,124.02-1.95s134-101.82,148-104.41c14-2.59,21.19,86.38,28.1,93.41,6.9,7.03,7.96-112.35-10.1-159.28-32-83.19-25.73-118.48-13.77-168.89,21.27-89.62-238.24,62.39-238.24,62.39Z"/>
      <path class="cls-32" d="m2335.83,2027.98c8.37,34.03-8.16,61.03-30.29,80.7-18,16-73.33,22.8-70.67,30.8,2.67,8,68,10.54,90,7.2,22-3.33,28-14,55.38-13.99,17.95,0,21.28-14.59,13.28-32.64-8-18.04-10.8-28.02-3.57-44.2,7.23-16.17-54.14-27.88-54.14-27.88Z"/>
      <path class="cls-32" d="m2662.31,2027.98c-1.33,35.33-5.44,61.66,3.23,78.03,33.47,28,61.29,59.8,50.67,62-50.67,10.46-70-19.9-98.67-28.54-35.18-10.59,3.33-54.8-10.45-111.5-7.66-31.52,53.12-23.97,53.12-23.97l2.1,23.97Z"/>
      <path class="cls-27" d="m2675.1,1307.36c-2.02-11.08-4.52-21.05-7.56-28.96-32-83.19-25.73-118.48-13.77-168.89.94-3.97,1.32-7.46,1.21-10.52,2.7-8.99,5.21-18.1,7.42-27.26l-10.86-98.04-78.31-93c-58.69,86-19.08,193-27.89,252-8.8,59-107.14,134.23-107.14,134.23l3.2,20.93c4.39,28.72,31.01,48.66,59.78,44.67,40.53-5.62,93.7-16.93,117.36-38.88,22.9-21.25,43.17-4.81,56.56,13.73Z"/>
      <path class="cls-10" d="m2461.19,1263.53s-43.41,12.15-48.6,14.86c-5.19,2.72-8.06,17.07-8.06,17.07,0,0-24.85,21.58-15.33,29.22,9.52,7.64,26.52,26.99,49,17.99,13.8-5.52,24.49-56.21,33.53-56.62,9.05-.41-10.54-22.51-10.54-22.51Z"/>
      <path class="cls-31" d="m2584.14,869.34c46.46,1.32,88.59,85,103.27,157.6,14.68,72.6,30.13,175.81,30.13,175.81,0,0-77,60.77-153.08,78.53-66.37,15.49-100.25,21.55-100.25,21.55l-13.46-37.89,158.8-93.27s-58.39-110-64.2-193c-5.8-83,3.49-110.33,38.8-109.33Z"/>
      <rect class="cls-8" x="2027.59" y="838.25" width="118.13" height="75.02" transform="translate(-131.51 427.62) rotate(-11.35)"/>
      <path class="cls-10" d="m2150.35,931.34c1.6-30.42-13.47-71.92-22.14-71.86-8.67.06,2.67,27.19-2,45.19-2.53,9.75,24.14,26.67,24.14,26.67Z"/>
      <path class="cls-26" d="m2382.96,661.34c2.57,83.33,99.91,76.94,126.57,71.81,26.67-5.14-32.46,175.81,18.33,186.25,37.3,7.67,28.9-50.68,70.33-46.78,18.33,1.73,36.76,30.06,36.76,30.06,0,0-2.76-17.46-16.76-30.06-14-12.61-50.7-89.94-60.35-145.27-9.65-55.33-74.98-91.12-94.31-92.23-19.33-1.11-66.67,20.89-66.67,20.89l-13.91,5.33Z"/>
      <path class="cls-26" d="m2527.01,938.26c-1.32,0-2.65-.14-4.01-.43-16.26-3.46-24.14-20.55-24.81-53.77-.57-28.48,4.13-65.03,9.12-103.72,2.01-15.63,4.1-31.8,5.81-47.45.15-1.34,1.34-2.31,2.69-2.16,1.34.15,2.3,1.35,2.16,2.69-1.72,15.7-3.81,31.89-5.82,47.55-9.64,74.87-18.75,145.58,11.87,152.1.95.2,1.9.3,2.85.3,17.59,0,33.43-34.28,42.67-67.67.36-1.3,1.7-2.06,3-1.7,1.3.36,2.06,1.7,1.7,3-6.09,22.04-22.49,71.26-47.21,71.27Z"/>
      <path class="cls-26" d="m2520.5,957.63c-5.54,0-10.37-2.15-14.4-6.4-33.18-35.07-.37-211.06,1.04-218.53.25-1.32,1.53-2.19,2.85-1.94,1.32.25,2.19,1.52,1.94,2.85-.34,1.81-33.77,181-2.29,214.28,3.66,3.87,7.99,5.41,13.24,4.72,17.23-2.28,27.18-25.65,35.95-46.28,8.51-20.01,16.52-38.9,30.78-38.41,1.34.05,2.4,1.18,2.35,2.52-.05,1.35-1.18,2.43-2.52,2.35-.12,0-.24,0-.35,0-10.69,0-18.02,17.23-25.78,35.45-9.29,21.83-19.81,46.56-39.8,49.2-1.03.14-2.04.2-3.02.2Z"/>
      <path class="cls-10" d="m2513.15,749.16c-6.86,8.84-17.61,11.98-24.01,7.02-6.4-4.97-6.03-16.16.83-25,6.86-8.84,17.61-11.98,24.01-7.02,6.4,4.97,6.03,16.16-.83,25Z"/>
    </g>
    <g>
      <path class="cls-26" d="m1756.88,1057.74c23.76,47.52,4.09,102.24-42.64,121.57-47.04,19.46-98.48,8.41-122.24-39.11-23.76-47.52-6.11-104.5,39.42-127.27,45.53-22.77,101.71-2.71,125.47,44.81Z"/>
      <path class="cls-26" d="m1628.78,1185.02c-5.25,0-15.58-1.85-28.73-13.52-10.78-9.57-18.53-24.24-21.8-41.3-4.13-21.54-1.44-46.31,8-73.62.44-1.27,1.82-1.95,3.1-1.51,1.27.44,1.95,1.83,1.51,3.1-9.16,26.49-11.79,50.41-7.82,71.11,3.07,16.02,10.26,29.72,20.25,38.58,16.66,14.79,27.84,12.1,27.96,12.07,1.29-.34,2.63.43,2.98,1.71.35,1.29-.39,2.62-1.67,2.98-.17.05-1.49.4-3.77.4Z"/>
      <g>
        <path class="cls-16" d="m1701.45,1242.65c27.05,6.06,61.19,81.21,77.91,129.36,16.86,48.56,45.45,108.8,64.17,127.52,18.72,18.72,141.71,62.11,141.71,62.11,0,0-303.89.59-297.67-.01,6.23-.6,13.88-318.97,13.88-318.97Z"/>
        <path class="cls-6" d="m1862.78,1537.49c-16.64-2.38-76.65,5.35-51.1-5.35,25.55-10.7,21.99-24.36,21.99-24.36,0,0-36.25,30.3-42.78,3.8-5.64-22.85-7.79-103.52-29.18-184.38-17.67-40.09-40.8-80.2-60.25-84.56,0,0-.68,28.47-1.81,68.39,7.46,88.34,20.13,218.12,23.34,250.83,40.28.06,107.69,0,164.09-.07l37.51-1.79s-45.16-20.14-61.8-22.51Z"/>
        <path class="cls-16" d="m1602.02,1226s-86.03,48.07-106.08,58.29c-20.05,10.22,56.18,310.27,73.14,323.13,16.95,12.86,166.22,2.21,183.22-13.99,16.99-16.2-13.04-65.92,1.67-165.47,14.71-99.55-44.86-185.5-52.51-185.31-7.65.19-57.59-16.65-57.59-16.65h-41.84Z"/>
        <path class="cls-6" d="m1569.08,1607.42c16.95,12.86,123.77,13.15,169.23-1,5.13-1.6,28.43-10.88,28.98-19.61-5.49-1.03-27.27,1.59-36.12-.45-30.75-7.07-47.68-45.16-47.68-45.16,0,0-16.93-6.09-54.81-22.13-37.88-16.04-22.28-64.62-23.17-86.01-.89-21.39-37.43-91.36-106.06-144.39l-6.3,2.82c-4.9,48.76,60.25,304.03,75.94,315.93Z"/>
        <g>
          <path class="cls-7" d="m2160.11,1372.01h-207.15l-94.34,200.77h228.17l85.4-181.74c4.16-8.86-2.3-19.03-12.08-19.03Z"/>
          <path class="cls-28" d="m1870.97,1575.62h-124.65c-7.73,0-14-6.27-14-14s6.27-14,14-14h115.71l78.24-168.38c3.26-7.01,11.58-10.05,18.6-6.8,7.01,3.26,10.05,11.58,6.8,18.6l-82,176.48c-2.3,4.94-7.25,8.1-12.7,8.1Z"/>
        </g>
        <path class="cls-10" d="m1654.81,1532.74c54.07,10.1,67.37,22.52,96.84,27.27,33.41,5.39,29.44,12.77,4.62,12.77s-87.18.96-108.58-3.79c-21.4-4.75,7.12-36.25,7.12-36.25Z"/>
        <path class="cls-16" d="m1489.18,1289.92c-41.44,132.5-100.19,282.85-90.83,282.85s247.32,9.62,256.68,1.61c9.36-8.01,6.69-38.76,5.35-42.77-1.34-4.01-135.29-27.78-135.29-27.78,0,0,17.64-34.38,24.32-101.56,6.68-67.18-52.37-137.48-60.23-112.35Z"/>
      </g>
      <path class="cls-10" d="m1633.53,1110.86l-33.38,121.99s56.41,88.05,71.92,80.23-8.67-71.57-8.67-80.23,24.18-98.04,24.18-98.04l-54.04-23.95Z"/>
      <path class="cls-18" d="m1664.55,1239.07c-.72-2.89-1.16-5.05-1.16-6.22,0-8.66,24.18-98.04,24.18-98.04l-54.04-23.95-11.05,40.37c9.65,41.7,27.06,69.48,42.07,87.84Z"/>
      <path class="cls-10" d="m1758.44,1108.84c6.36,35.37,2.17,82.36-29.24,94.3-31.41,11.95-69.25-10.91-84.51-51.04-15.26-40.14-2.17-82.36,29.24-94.3,31.41-11.94,76.92,8.78,84.51,51.04Z"/>
      <path class="cls-10" d="m1652.13,1128.75c4.4,12.37.58,25.02-8.54,28.27s-20.08-4.15-24.49-16.51c-4.4-12.37-.58-25.02,8.54-28.27,9.12-3.25,20.08,4.15,24.49,16.51Z"/>
      <path class="cls-26" d="m1758.81,1064.4c-10.69,83.01-111.55,72.32-111.55,72.32,0,0-20.8-27.34-30.16-13-9.36,14.34,12.98-84.16,70.85-87.26,19.01-1.02,70.85,27.95,70.85,27.95Z"/>
      <ellipse class="cls-26" cx="1601.67" cy="1029.3" rx="54.62" ry="51.25"/>
    </g>
    <g>
      <g>
        <polygon class="cls-11" points="1492.87 2175.94 1505.36 2175.94 1586.02 1802.23 1558.54 1802.23 1492.87 2175.94"/>
        <polygon class="cls-11" points="1881.22 2175.94 1868.73 2175.94 1774.86 1789.02 1802.34 1789.02 1881.22 2175.94"/>
        <path class="cls-11" d="m1635.39,1816.23c-50.04,0-81.74-8.99-101.97-28.69-25.08-24.43-30.27-62.27-30.34-111.57-.06-38.8-.98-64.07-3.09-84.5-.79-7.69,4.8-14.57,12.49-15.36,7.69-.79,14.57,4.8,15.36,12.49,2.2,21.41,3.17,47.53,3.23,87.32.08,49.97,6.41,76.49,21.88,91.56,15.86,15.45,44.55,21.83,92.98,20.62,46.77-1.15,78.96-7.7,104.83-12.96,34.02-6.91,58.61-11.91,87.76,2.02,6.98,3.33,9.93,11.69,6.6,18.67-3.33,6.98-11.69,9.93-18.67,6.6-20.69-9.89-38.24-6.32-70.11.16-26.95,5.48-60.48,12.29-109.72,13.51-3.84.09-7.59.14-11.24.14Z"/>
      </g>
      <path class="cls-11" d="m1521.71,1574.38l76.59,3.19-20.39,211.47s-57.09-36.44-56.2-75.66c.89-39.22,0-138.99,0-138.99Z"/>
      <path class="cls-10" d="m1899.81,1594.08c64.77-9.83,86.77-6.73,126.41,67.04,39.63,73.76,92.4,206.58,122.74,223.73,45.69,25.83,60.83,89.17,79.59,86.32,18.76-2.85,30.83,5.45,10.42,22.41-20.41,16.97-53.38,31.41-64.65,28.4-11.27-3.01-20.01-51.72-49.46-67.53-29.44-15.82-20.6-28.81-18.66-42.8,1.93-13.99-85.94-78.39-152.19-158.49-40.48-48.94-61.32-81.25-64.41-110.53-3.09-29.28,10.21-48.55,10.21-48.55Z"/>
      <path class="cls-18" d="m2060.36,1861.56c-15.04-38.16-30.13-101.14-44.31-158.88-20.17-82.11-41.31-101.61-54.7-110.37-16.19-4.06-35.38-2.2-61.54,1.77,0,0-13.3,19.27-10.21,48.55,3.09,29.28,23.93,61.59,64.41,110.53,34.88,42.17,75.75,79.99,106.36,108.4h0Z"/>
      <path class="cls-11" d="m1919.53,1659s-17.23,130.02-33.28,143.23c-11.48,9.45-19.61,10.08-27.63-28.7-8.02-38.78,12.48-183.51,12.48-183.51l48.43,68.97Z"/>
      <polygon class="cls-10" points="1905.8 1729.36 1746.32 1756.16 1836.36 1627.05 1904.88 1613.1 1945.97 1622.55 1905.8 1729.36"/>
      <path class="cls-11" d="m2106.19,1911.65c-5.17,20.84-4.55,36.24,4.44,43.95,8.98,7.72,42.93,65.07,42.93,65.07l10.57-1.6-24.48-52.48-33.45-54.94Z"/>
      <path class="cls-11" d="m2174.31,2021.98c11.27,3.01,44.24-11.43,64.65-28.4,20.41-16.97,8.34-25.26-10.42-22.41-1.06.16-2.1.09-3.14-.16-9.37,20.93-40.19,36.63-50.13,14.52-9.85-21.91-52.08-65.52-69.09-74.85.04.34.05.67.01.97-1.93,13.99-10.78,26.98,18.66,42.8,29.44,15.82,38.18,64.52,49.46,67.53Z"/>
      <path class="cls-18" d="m1574.3,1599.29c-56.58,101.54-17.93,166.08,50.84,172.65,68.77,6.58,177.33-5.98,240.62-58.57,63.28-52.59,115.23-108.19,107.97-116.49-7.26-8.3-399.43,2.4-399.43,2.4Z"/>
      <path class="cls-10" d="m1895.17,1675.05c11.59-34.76,24.94-61.43,50.8-61.91,27.19-.51,43.91,13.64,45.08,58.12,1.38,52.97,3.25,228.39.8,306.39-1.85,59.04,15.36,77.95,13.9,139.5-1.09,46.36,48.33,22.94,29.24,46.98-13.13,16.53-52.21,11.13-76.21,8.07-21.39-2.72,11.07-66.82-18.53-83.96-25.4-14.71-25.9-38.58-9.86-56.66,16.04-18.07,1.78-71.55-8.91-108.99-10.7-37.43-27.28-77.93-38.18-166.45-3.11-25.23,4.79-59.88,11.87-81.11Z"/>
      <path class="cls-11" d="m2018.08,2145.2c-8.19,2.5-18.28,5.25-27.08,5.54-17.83.59-23.17-19.01-24.36-45.65-1.04-23.26-17.93-59.88-35.25-74.74-.32.42-.65.84-.99,1.23-16.04,18.07-15.54,41.95,9.86,56.66,29.6,17.14-2.86,81.24,18.53,83.96,24,3.05,63.09,8.46,76.21-8.07,12.41-15.62-2.99-16.87-16.91-18.92Z"/>
      <path class="cls-11" d="m1934.4,2024.96s-26,27.15-23.62,38.44c2.38,11.29,10.39,39.81,11.73,61.8,1.34,21.99,2.53,47.22,2.53,47.22,0,0,9.36,0,10.1-2.66.74-2.66,5.94-89.36,5.94-89.36l-6.69-55.44Z"/>
      <path class="cls-7" d="m1547.05,1590.03s-33.56,142.43,8.84,181.91c42.4,39.48,218.48,3.97,259.95,1.6,28.08-1.6,55.26,32.67,55.26,32.67,0,0-19.61-79.46-6.24-143.64,13.37-64.17,34.94-68.49,34.94-68.49l-28.71-4.04h-324.05Z"/>
      <path class="cls-16" d="m1539.45,1552.79c14.35,30.45-15.45,83.04-5,98.19,10.44,15.15,70.23,2.12,109.41-29.41,39.18-31.54,113.34-38.47,113.34-38.47l-217.75-30.31Z"/>
      <path class="cls-11" d="m1600.15,1812.31c118.55,4.46,243.33,2.35,243.33-15.31s-5.35-30.14-97.15-23.01c-91.8,7.13-154.19,16.94-181.82,10.7-27.63-6.24,35.65,27.63,35.65,27.63Z"/>
    </g>
    <rect class="cls-11" x="1181.16" y="1572.77" width="1696.03" height="32.27" rx="12.91" ry="12.91"/>
    <g>
      <path class="cls-10" d="m3086.22,1140.27c11.49,40.49-16.56,82.21-47.46,90.98-30.9,8.76-52.95-18.75-64.43-59.23-11.48-40.49,4.25-80.41,35.15-89.18,30.9-8.77,65.26,16.95,76.74,57.44Z"/>
      <path class="cls-10" d="m2912.98,1924.82s79.19,122.99,89.88,128.34c10.7,5.35,37.43,6.68,27.41,26.74-10.03,20.05-14.04,98.93-23.4,102.94-9.36,4.01-89.57,13.37-77.54,0,12.03-13.37,19.43-6.68,25.5-30.75,6.07-24.06,14.6-69.52,3.24-78.88-11.36-9.36-80.88-93.58-80.88-93.58l35.78-54.81Z"/>
      <path class="cls-10" d="m2514.42,1977.64s-96.26,158.65-114.09,172.91c-17.83,14.26-76.65,35.65-28.52,39.22,48.13,3.57,71.3-16.04,101.61-24.96,30.3-8.91,67.74-14.26,53.48-37.43-14.26-23.17-8.34-73.76,22.41-105.85,30.74-32.09-34.88-43.89-34.88-43.89Z"/>
      <path class="cls-15" d="m3005.65,1609.75s-238.29-6.23-332.77,71.3c-55.26,83.78-188.95,330.98-199.34,358.22,7.13,7.13,47.24,20,65.07,18.21,52.59-62.7,122.09-116.91,149.74-166.09,34.07-60.61,44.56-90.91,99.83-96.26,55.26-5.35,180.04-23.17,217.48-23.17s0-162.22,0-162.22Z"/>
      <polygon class="cls-11" points="3213.45 2190.2 3200.96 2190.2 3111.39 1816.49 3138.87 1816.49 3213.45 2190.2"/>
      <polygon class="cls-11" points="2839.27 2190.2 2851.77 2190.2 2954.55 1803.28 2927.07 1803.28 2839.27 2190.2"/>
      <path class="cls-7" d="m3141.4,1593.43l-138.54,23.91s-184.1,1.69-268.26,17.37c-76.56,14.26-87.84,101.25,0,221.04,49.9,68.05,92.09,122.33,178.37,183.53,21.95-16.11,30.34-22.21,36.41-60.98-6.25-8.56-22.41-62.15-27.43-72.64-47.72-99.76-111.42-136.04-112.31-145.85,10.7-17.38,283.3,90.59,337.5,27.08,51.75-60.64-5.75-193.46-5.75-193.46Z"/>
      <path class="cls-3" d="m3147.16,1279.79c-36.49-5.12-73.65,1.81-108.4,26.98-30.37,30.96-64.73,82.01-62.63,166.22,2.67,106.95-16.55,113.82,3.5,143.23,83.64,34.54,226.68,182.93,193,23.84-24.39-115.19,53.5-201.06-9.34-328.84-5.11-10.4-11.5-20.49-16.13-31.43Z"/>
      <path class="cls-23" d="m2976.1,1513.23c-1.63,55.76-9.5,72.18-3.48,89.66,34.1,3.48,96.47,17.12,112.05,38.95,17.83,24.96,35.65,28.52,27.33,10.1-8.32-18.42-30.3-44.56,3.57-134.29,33.87-89.72,49.91-150.33,16.64-212.72l-156.11,208.3Z"/>
      <path class="cls-10" d="m3147.16,1279.79c-22.47-53.19-27.99-112.95-27.99-112.95l-58.82,17.38s33.42,74.86,1.34,101.6c-6.82,5.68-14.73,12.58-22.93,20.94,34.75-25.16,71.92-32.1,108.4-26.98Z"/>
      <path class="cls-18" d="m3120.94,1181c-3.48-3.1-7.84-6.97-12.42-11.02l-47.98,14.18c-.03.09-.07.17-.1.26,1.16,2.65,13.38,31.17,14.99,58.6,14.3-8.67,29.95-22.82,47.85-47.53-.97-5.48-1.74-10.37-2.34-14.49Z"/>
      <path class="cls-10" d="m3105.8,1296.51c-60.59,21.19-53.87,85.01-109.62,179.14-28.86,48.71-55.66,47.99-55.66,47.99,0,0-67.68.54-149.53-9.47-51.26-6.27-54.51,8.99-18.86,21.74,71.9,25.71,146.51,53.38,206.67,46.69,60.16-6.68,163.05-160.18,168.36-200.14,7.34-55.26-10.84-96.63-41.36-85.96Z"/>
      <path class="cls-11" d="m3074.62,1830.5c-3.76,0-7.6-.05-11.56-.15-49.24-1.22-82.77-8.03-109.72-13.51-31.86-6.48-49.42-10.04-70.11-.16-6.98,3.33-15.33.38-18.67-6.6-3.33-6.98-.38-15.33,6.6-18.67,29.15-13.93,53.73-8.93,87.76-2.02,25.87,5.26,58.06,11.8,104.83,12.96,52.67,1.3,84.89-6.59,101.35-24.85,14.7-16.3,19.03-43.48,13.62-85.52-1.83-14.24-3.66-26.08-5.28-36.53-4.53-29.31-7.53-48.67-3.83-78.52,3.45-27.83,12.68-64.95,34.07-136.98,2.2-7.41,9.99-11.63,17.41-9.44,7.41,2.2,11.64,9.99,9.44,17.41-40,134.73-37.97,147.88-29.41,203.25,1.64,10.61,3.5,22.64,5.38,37.23,6.53,50.75-.02,85.02-20.6,107.84-21.21,23.52-55.79,34.23-111.28,34.23Z"/>
      <path class="cls-23" d="m2520.96,2111.36c-63.87,31.24-98.25,49.14-118.72,47.43-4.83-.4-8.84-.9-12.2-1.42-22.78,13.46-59.14,29.37-18.23,32.4,48.13,3.57,71.3-16.04,101.61-24.96,30.3-8.91,67.74-14.26,53.48-37.43-2.73-4.44-4.72-9.89-5.93-16.02Z"/>
      <path class="cls-23" d="m3009.83,2055.77c-1.56,50.57-8.51,100.68-39.44,110.15-8.2,2.51-15.67,2.87-22.28,1.99-4.86,6.01-10.8,6.08-18.77,14.93-12.03,13.37,68.18,4.01,77.54,0,9.36-4.01,13.37-82.89,23.4-102.94,8.24-16.47-8.33-20.32-20.44-24.13Z"/>
      <path class="cls-7" d="m2763.8,1575.62h-202.91c-5.45,0-10.4-3.16-12.7-8.1l-82-176.48c-3.26-7.01-.21-15.34,6.8-18.6,7.01-3.26,15.34-.21,18.6,6.8l78.24,168.38h193.98c7.73,0,14,6.27,14,14s-6.27,14-14,14Z"/>
      <path class="cls-10" d="m2806.25,1515.94c-41-.59-81.66-25.03-101.86-21.47-20.2,3.57-86.16,49.32-77.84,51.1,8.32,1.78,60.61-25.32,62.39-25.73,1.78-.41,13.07,18.77,41,25.82,27.93,7.05.2-20.93,86.77,5.21,56.29,17-10.45-34.93-10.45-34.93Z"/>
      <path class="cls-24" d="m3141.12,1231.25l6.03,48.54s-53.05,3.16-79.46,18.01c-26.4,14.86-65.36,57.77-65.36,57.77l31.83-54.8,4.58-35.06,102.37-34.46Z"/>
      <path class="cls-24" d="m3118.55,1290.67c-39.41-7.38-57.64,27.93-83.19,85.56-25.55,57.64-69.17,127.64-77.84,136.67-8.67,9.03-146.17,0-146.17,0,0,0-4.16,39.81,0,44.56,4.16,4.75,27.93,4.16,27.93,4.16,0,0,9.51,7.59,18.42,13.6,8.91,6.01,84.38,17.3,119.43,15.52,35.06-1.78,67.14-4.75,71.9-10.1,4.75-5.35,100.42-152.71,106.36-205.59,5.94-52.88-16.73-80.61-36.84-84.38Z"/>
      <path class="cls-26" d="m3002.34,1048.23c-74.53,3.57-62.84,115.69-62.84,115.69,0,0,19.36,5.98,59.91-.71-3.12-12.03-1.78-42.78-1.78-42.78,0,0,4.71,24.96,10.7,40.11,8.57,3.93,18.27.45,34.76-3.54,8.47,35.63,32.39,50.68,48.78,55.83,18.1,5.69,37.26,12.48,58.65,1.78s9.63-120.03-1.73-142.01c-17.05-33-45.39-62.54-94.41-46.94-24.58,7.82-52.03,22.58-52.03,22.58Z"/>
      <path class="cls-26" d="m3131.95,1181.39l30.47,44.51s-33.77,84.38,64.45,122.6c76.92,29.94,67.86,82.69,33.1,135.74-34.76,53.05,20.8,99.38,20.8,99.38,0,0,8.47-58.77,83.21-69.86,101.9-15.12,130.76-151.94,54.64-220.35-62.98-56.61-82.15-9.73-124.78-60.53-42.63-50.8-123.12-16.49-123.12-16.49l-29.5-43.02-9.27,8.02Z"/>
      <path class="cls-26" d="m3453.67,1430.96c-.4,0-.8-.1-1.17-.3-1.18-.65-1.61-2.13-.97-3.31,25.68-46.94,4.73-103.81-5.82-119.21-1.11-1.63-2.17-3.28-3.29-5.02-10.36-16.17-23.26-36.3-91.99-48.67-16.46-2.96-29.82-12.77-43.96-23.15-29.32-21.53-62.55-45.92-134.75-12.69-1.22.56-2.67.03-3.23-1.19-.56-1.22-.03-2.67,1.19-3.23,74.81-34.43,109.27-9.13,139.67,13.19,13.67,10.04,26.58,19.52,41.94,22.28,70.82,12.75,84.36,33.87,95.23,50.84,1.1,1.71,2.13,3.33,3.21,4.9,6.35,9.28,14.2,28.51,17.41,50.54,2.79,19.11,3.08,47.41-11.34,73.76-.44.81-1.28,1.27-2.14,1.27Z"/>
      <path class="cls-26" d="m3115.67,1226.72c-4.86,0-10.12-.42-15.79-1.27-25.98-3.89-60.83-18.67-63.57-101.67-.04-1.34,1.01-2.47,2.35-2.51,1.38-.06,2.47,1.01,2.51,2.35,1.13,34.36,7.96,59.79,20.28,75.59,9.38,12.03,21.82,18.83,39.14,21.43,24.26,3.63,40.34-.87,47.81-13.37.69-1.15,2.19-1.53,3.34-.84,1.15.69,1.53,2.19.84,3.34-6.74,11.28-19.13,16.96-36.93,16.96Z"/>
    </g>
    <g>
      <path class="cls-27" d="m789.67,1285.62c-86.5,49.46-206.82,255.08-181.42,288.63,25.4,33.56,161.76-54.68,161.76-54.68l19.66-233.95Z"/>
      <path class="cls-26" d="m951.28,1047.18c-33.03-.9-20.77-25.45-58.76-15.65-19.97,5.15-5.23,13.37-31.17,10.7-25.94-2.67-38.71-5.35-41.98,11.59-3.27,16.93-4.85,22.28-17.33,24.96-12.48,2.67-18.11,24.96,0,40.11,18.11,15.15,9.31,21.39,5.3,33.87-4.01,12.48,9.66,13.37,17.09,24.96,7.43,11.59-6.84,13.78,3.86,23.82,10.7,10.05,25.7,9.15,25.7,9.15l45.03-86.33,52.28-77.18Z"/>
      <path class="cls-11" d="m1624.26,2083.39s48.13,1.34,85.56-13.37c37.43-14.71,62.83-37.43,56.15-10.7-6.68,26.74-37.43,72.61-64.17,77.08-26.74,4.47-36.1,33.88-50.8,33.88s-36.1-33.88-73.53-50.82c-34.12-15.43,46.79-36.08,46.79-36.08Z"/>
      <path class="cls-11" d="m1244.98,2078.88s20.24,27.91,55.47,47.33c36.38,20.05,78.36,29.71,52.33,38.78-26.03,9.07-64.08,16.12-101.2,5.34-26.03-7.56-56.55-9.14-64.62-21.44-8.06-12.3,9.49-43.19,2.19-89.35-5.85-36.98,55.83,19.35,55.83,19.35Z"/>
      <path class="cls-28" d="m1019.62,1630.22s278.8,104.39,301.26,133.57c22.46,29.18,315.52,295.02,315.52,314.63s-49.91,55.26-49.91,55.26c0,0-251.35-154.19-313.74-232.63-62.39-78.43-214.66-116.25-295.61-123.51-80.95-7.26,42.49-147.32,42.49-147.32Z"/>
      <path class="cls-32" d="m1030.31,1630.22s190.74-7.13,231.74,0c41,7.13,130.93,7.05,72.11,173.06-46.1,130.12-61.32,294.86-61.32,294.86l-91.67,22.52s3.64-296.23,47.38-375.11c-31.86,5.25-90.33,15.5-171.36,38.67-150.33,42.99-232.76,21.46-232.76,21.46l-22.38-78.43,228.27-97.03Z"/>
      <polygon class="cls-25" points="871.03 1137.76 824.43 1275.46 883.3 1314.23 916.67 1195.25 871.03 1137.76"/>
      <path class="cls-14" d="m888.57,1295.45l28.1-100.21-45.64-57.49-17.05,50.37c5.88,45.49,20.1,83.12,34.59,107.32Z"/>
      <path class="cls-25" d="m989.91,1161.07c1.51,41.88-19.06,78.13-51.76,81.35-32.7,3.22-62.54-27.97-66.65-69.68-4.11-41.7,19.06-78.13,51.76-81.35,32.7-3.22,64.26,3.59,66.65,69.68Z"/>
      <path class="cls-31" d="m802.04,1271.45c-143.06,96.61-54.08,252.73-22.67,366.82,26.76,97.17,25.88,155.9,29.89,155.9s102.4-14.71,158.54-65.51c56.15-50.8,94.11-100.01,94.11-100.01,0,0-71.94-12.81-95.45-105.87-11.94-47.25-6.51-72.9-33.72-147.76-27.21-74.87-130.72-103.57-130.72-103.57Z"/>
      <path class="cls-31" d="m802.04,1271.45l15.32-37.49s48.58,32.09,67.96,47.24c19.39,15.15,31.34,18.72,31.34,18.72,0,0,7.01,53.74,2.46,48.86-57.33-61.45-117.08-77.33-117.08-77.33Z"/>
      <g>
        <polygon class="cls-11" points="738.64 2190.2 751.13 2190.2 840.7 1816.49 813.22 1816.49 738.64 2190.2"/>
        <polygon class="cls-11" points="1112.81 2190.2 1100.32 2190.2 997.54 1803.28 1025.02 1803.28 1112.81 2190.2"/>
        <path class="cls-11" d="m877.79,1830.49c-50.04,0-81.74-8.99-101.97-28.69-25.08-24.43-30.27-62.27-30.34-111.57-.16-103.65-5.89-125.08-35.07-188.37-3.24-7.02-.17-15.34,6.85-18.58,7.02-3.24,15.34-.17,18.58,6.85,30.84,66.9,37.48,91.49,37.64,200.05.08,49.97,6.41,76.49,21.88,91.56,15.86,15.45,44.54,21.82,92.98,20.62,46.77-1.15,78.96-7.7,104.83-12.96,34.02-6.92,58.61-11.91,87.76,2.02,6.98,3.33,9.93,11.69,6.6,18.67-3.33,6.98-11.69,9.93-18.67,6.6-20.69-9.89-38.24-6.32-70.11.16-26.95,5.48-60.48,12.29-109.72,13.51-3.84.09-7.6.14-11.24.14Z"/>
      </g>
      <path class="cls-28" d="m1495.92,1574h-202.91c-7.73,0-14-6.27-14-14s6.27-14,14-14h193.98l78.24-168.38c3.26-7.01,11.58-10.05,18.6-6.8,7.01,3.26,10.05,11.58,6.8,18.6l-82,176.48c-2.3,4.94-7.25,8.1-12.7,8.1Z"/>
      <path class="cls-27" d="m807.34,1412.11s35.65,108.74,79.77,153.75c44.12,45.01,132.91,60.13,160.71,58.36-22.16-8.91-64.37-34.26-81.34-101.45-11.94-47.25-6.51-72.9-33.72-147.76-20.2-55.57-82.43-85.71-113.17-97.55,38.36,27.55,86.33,72.93,101.07,107.46,16.36,38.33-113.32,27.18-113.32,27.18Z"/>
      <path class="cls-25" d="m1299.42,1507.54s61.5-28.07,68.18-25.4c6.68,2.67,74.87,43.84,74.87,50.66s-60.16-25.42-60.16-25.42c0,0,6.68,17.82,2.67,26.37-4.01,8.55-50.26,8.55-91.97,5.87-41.72-2.67,6.41-32.09,6.41-32.09Z"/>
      <path class="cls-31" d="m809.31,1328.1c-56.69,116.19,137.77,233.97,253.13,244.44,115.37,10.47,252.43-27.28,252.43-27.28l-15.45-37.72s-231.12-30.17-236.98-34.39c-5.85-4.22-232.37-187.6-253.13-145.05Z"/>
      <path class="cls-25" d="m883.01,1141.68c5.25,13.82,1.4,28.1-8.6,31.91-10.01,3.81-22.38-4.31-27.63-18.13-5.25-13.82-1.4-28.1,8.6-31.91,10.01-3.81,22.38,4.31,27.63,18.13Z"/>
      <path class="cls-26" d="m989.99,1053.22c15.66-6.54,33.3-13.54,27.84,13.07-2.38,11.59,0,8.32,4.16,19.01,4.16,10.7-10.48,19.09-15.24,25.04-4.75,5.94,6.92,12.4-2.59,19.53-9.51,7.13-22.04-2.64-30.9,0-26.44,7.89-23.17-12.91-38.03-17.23-14.85-4.33-22.14-3.66-24.96,5.85-2.82,9.51,10.4,40.79-.89,37.82-11.29-2.97-13.83,22.28-16.87,36.54-3.04,14.26-10.78-9.84-10.28-26.16.77-25.02-5.44-35.53-14.66-42.53-9.22-7-13.14-70.65,31.42-73.03,44.56-2.38,44.85-6.68,63.86-10.7,19.01-4.02,19.98,15.75,27.12,12.78Z"/>
    </g>
    <g>
      <path class="cls-12" d="m3488.49,1780.1c28.42,25.94,16.06,51.89-4.94,100.07-21,48.18-24.71,226.09-24.71,226.09l17.3-2.47s-2.47-182.85,21-232.26c23.47-49.42,33.36-74.13,54.36-58.07,21,16.06-63.01-33.36-63.01-33.36Z"/>
      <path class="cls-22" d="m3472.88,1746.51c3.45-15.38,23.95-32.01,51.35-46.12-4.07,22.68-17.14,59.76-3.62,67.36,18.23,10.26,1.78-41.51,8.81-69.97,25.73-12.57,56.69-22.84,85.2-27.95-.04.11-.07.21-.12.31-16.06,40.77-37.06,56.83-28.41,63.01,6.51,4.65,27.7-42.45,55.68-66.59,21-1.12,38.77,1.73,49.29,10.05,16.25,12.86,27.15,24.28,10.81,63.45-9.34,6.67-21.43,11.45-35.48,12.86-37.06,3.71-54.36,4.94-28.42,17.3,12.71,6.05,34-.34,51.27-4.24-5.6,10.32-12.49,22-20.85,35.31-5.31,8.44-11.15,15.76-17.36,22.1-11.95,2.29-22.36,2.31-27.87-.05-17.3-7.41-61.77-30.89-72.89-21-10.88,9.67,82.37,15.8,75.91,40.38-45.2,26.04-96.92,13.65-106.06-10.26-12.28-32.11-57.61-39.67-47.23-85.95Z"/>
      <path class="cls-12" d="m3566.32,1922.18c-49.42-37.06-100.07-2.47-126.02,37.06-25.94,39.53-7.41,128.49-7.41,128.49,0,0,9.88,0,9.88-3.71s-27.18-105.01,37.06-150.72c40.19-28.6,69.18-14.83,72.89-1.24,3.71,13.59-16.06,38.3-16.06,38.3l29.65-48.18Z"/>
      <path class="cls-22" d="m3452.66,1845.99c49.42,0,65.48,76.6,51.89,121.07-13.59,44.48-32.12,127.25-32.12,127.25l-12.35-12.35s46.95-116.13,35.83-168.02c-11.12-51.89-38.3-60.54-43.24-60.54s0-7.41,0-7.41Z"/>
      <path class="cls-12" d="m3494.11,1967.41c3.48-4.6,7.77-8.41,13.01-10.93-.69,3.68-1.54,7.23-2.57,10.59-6.19,20.26-13.41,48.48-19.43,73.19-.55-3.17-1.39-8.04-2.69-15.57-.31-1.78-.55-3.71-.72-5.75,4.84-16.46,9.41-34.39,12.4-51.53Z"/>
      <path class="cls-22" d="m3507.62,1967.78c93.89-39.53,44.43-93.79,127.2-57.96,5.83,2.52,12.94,8.89,20.05,17.66-7.37,2.09-16.3,3.59-26.23,2.1-24.71-3.71-16.06,16.06,24.71,21,7.68.93,13.92,2.21,19.1,4.03,19.42,37.3,28.18,86.39-12.93,103.45-8.1,3.36-18.11,5.29-29.25,6-12.68-10.08,3.09-68.41-16.46-60.36-18.77,7.73,5.88,50.01,2.5,60.66-18.53-.34-39.05-3.36-58.65-8.22-7.76-4.35-13.68-10.18-15.51-17.84-6.18-25.94,34.59-42,35.83-64.24,1.14-20.44-14.94,44.98-57.54,54.6-38.52-17.99-56.72-42.41-12.83-60.89Z"/>
      <path class="cls-22" d="m3440.71,1897.88c9.88-21-16.06-25.94-14.83-9.88,1.1,14.23,1.22,48.83-13.38,58.24-25.17-2.73-59.42-12.87-85.31-28.33-.33-2.09,0-4.24,1.09-6.44,11.12-22.24,82.78-40.77,60.54-48.18-17.71-5.9-48.74,28.94-73.75,46.5-15.02-11.4-25.08-24.98-25.08-40.14,0-20.52,24.94-43.76,57.19-54.86,14.51,1.46,28,9.4,49.06,21.33,31.11,17.63,23.92-10.87-5.5-27.79,25.39,1.31,50.71,12.16,69.38,38.08,0,0-1.77,11.08,9.96,28.22,31.99,46.75-4.93,74.05-49.06,72.27,2.5-12.32,12.86-34.5,19.69-49.01Z"/>
      <path class="cls-12" d="m3563.35,1920.08c24.16,18.67,51,40.5,83.95,55.32,32.95,14.83,26.36,63.15,26.36,63.15,0,0,4.94-41.73-22.51-56.01-27.46-14.28-45.58-31.3-66.44-34.59-20.87-3.29-32.4-6.59-32.4-6.59,0,0,6.59-13.18,2.75-18.12-3.84-4.94,8.31-3.16,8.31-3.16Z"/>
      <path class="cls-12" d="m3682.43,1700.85c-88.41,23.61-153.2,80.17-165.28,93.9-12.08,13.73-12.08,17.57-12.08,17.57l9.34,17.57,4.39-2.2s-7.14-14.83,11.53-34.04c32.2-33.14,71.38-59.3,98.29-70.83,26.91-11.53,53.81-21.96,53.81-21.96Z"/>
      <path class="cls-7" d="m3438.4,2069.11h33.78c24,0,43.49,19.49,43.49,43.49v77.6h-120.75v-77.6c0-24,19.49-43.49,43.49-43.49Z" transform="translate(6910.58 4259.31) rotate(180)"/>
      <rect class="cls-1" x="3394.91" y="2082.98" width="120.75" height="8.5"/>
      <rect class="cls-1" x="3394.91" y="2098.48" width="120.75" height="5"/>
    </g>
    <g>
      <g>
        <path class="cls-8" d="m2005.9,448.56c0-91.51-73.6-165.84-164.84-167-91.66-1.17-167.72,72.64-169.18,164.29-.71,44.74,16.18,85.53,44.18,115.9,12.9,13.99,20.07,32.33,20.07,51.36v74.87c0,48.44,39.63,88.07,88.06,88.07h29.36c48.44,0,88.07-39.63,88.07-88.07v-74.86c0-19.19,7.4-37.56,20.37-51.7,27.26-29.72,43.9-69.34,43.9-112.85Z"/>
        <path class="cls-2" d="m1982.57,459.77c0-78.73-63.32-142.67-141.81-143.67-78.85-1.01-144.29,62.49-145.54,141.34-.61,38.49,13.92,73.58,38.01,99.71,11.1,12.04,17.26,27.81,17.26,44.19v64.41c0,41.67,34.09,75.76,75.76,75.76h25.26c41.67,0,75.76-34.09,75.76-75.76v-64.4c0-16.51,6.37-32.31,17.53-44.48,23.45-25.57,37.77-59.66,37.77-97.09Z"/>
        <path class="cls-13" d="m1863.57,643.13h-55c-2.58,0-4.74-1.97-4.98-4.54-.1-1.07-10.36-107.24-57.84-136.98-2.34-1.47-3.05-4.55-1.58-6.89,1.46-2.34,4.55-3.05,6.89-1.58,46.31,29,59.47,118.47,62.01,140h45.22c-.18-7.39.25-21.64,4.5-40.09,5.69-24.66,19.64-61.86,53.79-99.05,1.87-2.03,5.03-2.17,7.07-.3,2.03,1.87,2.17,5.03.3,7.06-62.42,67.96-55.48,136.13-55.4,136.81.16,1.42-.29,2.83-1.24,3.89-.95,1.06-2.3,1.67-3.73,1.67Z"/>
        <path class="cls-13" d="m1904.74,508.45c-18.57,0-43.88-13.19-70.55-27.49-34.44,18.34-66.6,34.79-84.6,23.87-8.46-5.13-12.51-15.17-12.37-30.69.13-14.61,4.32-24.46,12.45-29.28,18.04-10.68,50.26,6.36,84.53,24.75,34.95-18.64,67.85-35.99,85.82-25.05,8.07,4.91,12.06,14.9,11.88,29.68-.2,15.38-4.62,25.73-13.14,30.75-4.05,2.39-8.77,3.44-14.02,3.44Zm-59.92-33.15c27.46,14.59,56.18,28.57,68.87,21.09,5.31-3.13,8.07-10.62,8.22-22.27.14-11-2.24-18.07-7.08-21.01-12.26-7.46-42.03,7.34-70.01,22.19Zm-81.63-23.78c-3.3,0-6.14.6-8.42,1.95-4.91,2.91-7.45,9.89-7.55,20.76-.1,11.53,2.44,18.95,7.55,22.05,12.34,7.48,41.16-6.42,68.8-21.01-22.35-11.92-45.81-23.75-60.39-23.75Z"/>
        <rect class="cls-13" x="1804.07" y="755.8" width="73" height="44" rx="20.5" ry="20.5"/>
        <path class="cls-13" d="m1731.28,634.13v52.96c0,50.72,41.5,92.23,92.23,92.23h30.75c50.72,0,92.23-41.5,92.23-92.23v-52.96h-215.2Z"/>
        <rect class="cls-4" x="1722.9" y="625.47" width="234.67" height="25.33" rx="12" ry="12"/>
        <path class="cls-4" d="m1946.32,669.79l-209.08,25.83c-6.55.81-12.57-3.89-13.38-10.44l-.16-1.32c-.81-6.55,3.89-12.57,10.44-13.38l209.08-25.83c6.55-.81,12.57,3.89,13.38,10.44l.16,1.32c.81,6.55-3.89,12.57-10.44,13.38Z"/>
        <path class="cls-4" d="m1946.32,706.38l-209.08,25.83c-6.55.81-12.57-3.89-13.38-10.44l-.16-1.32c-.81-6.55,3.89-12.57,10.44-13.38l209.08-25.83c6.55-.81,12.57,3.89,13.38,10.44l.16,1.32c.81,6.55-3.89,12.57-10.44,13.38Z"/>
        <path class="cls-4" d="m1933.42,745.54l-174.13,21.51c-6.01.74-11.54-3.57-12.28-9.58l-.41-3.28c-.74-6.01,3.57-11.54,9.58-12.28l174.13-21.51c6.01-.74,11.54,3.57,12.28,9.58l.41,3.28c.74,6.01-3.57,11.54-9.58,12.28Z"/>
      </g>
      <g>
        <path class="cls-4" d="m3441.06,793.02h112.24c0,61.57-50.67,112.24-112.24,112.24s-112.24-50.67-112.24-112.24,50.67-112.24,112.24-112.24v112.24Z"/>
        <g>
          <path class="cls-29" d="m3572.1,777.3c0-61.99-50.25-112.24-112.24-112.24v112.24h112.24Z"/>
          <path class="cls-29" d="m3347.62,777.3c0,61.99,50.25,112.24,112.24,112.24-61.57,0-112.24-50.67-112.24-112.24Z"/>
          <path class="cls-29" d="m3459.86,665.06c-61.99,0-112.24,50.25-112.24,112.24,0-61.57,50.67-112.24,112.24-112.24Z"/>
          <path class="cls-29" d="m3459.86,889.54c61.99,0,112.24-50.25,112.24-112.24,0,61.57-50.66,112.24-112.24,112.24Z"/>
        </g>
      </g>
      <g>
        <rect class="cls-4" x="1244.45" y="718.77" width="24.51" height="70.93"/>
        <rect class="cls-4" x="1558.64" y="741.85" width="24.51" height="47.85"/>
        <rect class="cls-4" x="1348.33" y="623.75" width="24.51" height="165.95"/>
        <rect class="cls-4" x="1400.28" y="715.11" width="24.51" height="74.59"/>
        <rect class="cls-4" x="1452.22" y="694" width="24.51" height="95.71"/>
        <rect class="cls-4" x="1296.39" y="671.94" width="24.51" height="117.76"/>
        <rect class="cls-4" x="1504.34" y="644.66" width="24.51" height="145.04"/>
      </g>
      <g class="cls-21">
        <path class="cls-31" d="m591.12,584.04l-128.55-78.61-23.25,148.88c60.39,9.52,120.29-18.78,151.81-70.27Z"/>
        <path class="cls-22" d="m591.25,583.86c.35-.57.8-1.35.78-1.32,27.15-45.48,28.25-101.97,3.34-148.34-45.49,23.83-18.4,9.35-132.81,71.22,128.77,78.74,108.77,66.6,128.69,78.44Z"/>
        <path class="cls-4" d="m321.25,453.35l141.32,52.07,132.57-71.68c-62.01-114.68-228.92-100.92-273.88,19.61Z"/>
        <path class="cls-29" d="m439.31,654.31l23.25-148.88-141.32-52.07c-33.6,90.09,26.04,186.45,118.06,200.95Z"/>
        <path class="cls-1" d="m312,478c2.63,0,5.05.67,7.14,1.85,1.22-6.75,2.92-13.45,5.13-20.05l76.73,28.27s0-.05,0-.07c-.16-3.5,1.16-6.77,3.34-9.36l-7.68-2.83-68.89-25.38c5.65-13.76,13.17-26.27,22.19-37.33-3.25-1.19-5.91-3.49-7.66-6.43-9.74,11.92-17.85,25.44-23.91,40.3l-.08-.03-1.74,4.67-1.75,4.7.08.03c-2.43,7.22-4.29,14.55-5.62,21.94.9-.18,1.81-.28,2.73-.28Z"/>
        <path class="cls-30" d="m601.82,435.81l.08-.04-2.38-4.4c-.05-.09-.1-.18-.15-.26l-1.94-3.62-.07.04c-15-26.06-36.39-46.85-62.11-60.25-25.19-13.12-53.83-19-82.83-16.98-34.1,2.37-65.17,15.15-89.84,35.83,2.9,1.76,5.12,4.5,6.35,7.74,23.11-19.39,52.22-31.38,84.18-33.6,55.77-3.88,107.11,23.42,135.18,71.5l-39.15,21.17c-8.08,4.35-19.38,10.46-38.3,20.7-12.12,6.56-27.37,14.81-46.9,25.37l-1.21.65-3.94-2.41-.21,1.37-27.57-10.16c.03,3.51-1.4,6.76-3.69,9.3l29.68,10.94-21.84,139.8c-41.24-7.96-76.92-33.32-98.45-70.18-12.87-22.03-19.54-46.54-19.84-71.22-1.56.56-3.2.89-4.86.89-1.83,0-3.55-.34-5.14-.94.29,26.45,7.42,52.71,21.21,76.31,23.05,39.46,61.32,66.58,105.54,75.01v.09s4.91.78,4.91.78c0,0,4.95.78,4.95.78v-.09c6.41.8,12.82,1.2,19.21,1.2,22.48,0,44.75-4.92,65.46-14.56,26.51-12.34,48.79-31.64,64.7-55.96l.1.06.98-1.6s1.59-2.61,1.59-2.61c.24-.4.54-.9.7-1.18l.11-.18s.05-.09.08-.14l1.59-2.59-.07-.04c25.55-44.9,27-100.35,3.9-146.53Zm-156.79,214.26l21.31-136.46,55.47,33.92c22.36,13.68,35.15,21.5,43.21,26.42l19.15,11.71c-30.54,46.33-84.21,71.17-139.14,64.41Zm144.45-73.07s-.95-.56-.95-.56c-5.25-3.11-7.53-4.46-18-10.85l-97.94-59.89,81.3-43.96c11.94-6.42,16.83-8.98,28.96-15.32,2.96-1.55,6.35-3.32,10.39-5.43,21.19,42.93,19.8,94.3-3.75,136.02Z"/>
      </g>
      <g>
        <path class="cls-4" d="m872.37,338.24h414.56c4.51,0,8.17,3.66,8.17,8.17v178.39c0,4.51-3.66,8.17-8.17,8.17h-414.56c-4.51,0-8.17-3.66-8.17-8.17v-178.39c0-4.51,3.66-8.17,8.17-8.17Z"/>
        <rect class="cls-1" x="875.98" y="389.41" width="407.34" height="134.43" rx="6.6" ry="6.6"/>
        <g>
          <path class="cls-1" d="m885.62,352.58h9.57c2.02,0,3.66,1.64,3.66,3.66v7.88c0,2.02-1.64,3.66-3.66,3.66h-9.57c-2.02,0-3.66-1.64-3.66-3.66v-7.88c0-2.02,1.64-3.66,3.66-3.66Z"/>
          <path class="cls-1" d="m916.31,352.58h9.57c2.02,0,3.66,1.64,3.66,3.66v7.88c0,2.02-1.64,3.66-3.66,3.66h-9.57c-2.02,0-3.66-1.64-3.66-3.66v-7.88c0-2.02,1.64-3.66,3.66-3.66Z"/>
          <path class="cls-1" d="m947,352.58h9.57c2.02,0,3.66,1.64,3.66,3.66v7.88c0,2.02-1.64,3.66-3.66,3.66h-9.57c-2.02,0-3.66-1.64-3.66-3.66v-7.88c0-2.02,1.64-3.66,3.66-3.66Z"/>
        </g>
        <path class="cls-4" d="m1266.74,418.87h-215.46c-3.54,0-6.45-2.9-6.45-6.45s2.9-6.45,6.45-6.45h215.46c3.54,0,6.45,2.9,6.45,6.45s-2.9,6.45-6.45,6.45Z"/>
        <path class="cls-4" d="m1104.69,518.31h-215.46c-3.55,0-6.45-2.9-6.45-6.45s2.9-6.45,6.45-6.45h215.46c3.54,0,6.45,2.9,6.45,6.45s-2.9,6.45-6.45,6.45Z"/>
        <rect class="cls-4" x="1119.88" y="505.42" width="26.7" height="12.89" rx="2.2" ry="2.2"/>
        <rect class="cls-4" x="1153.49" y="505.42" width="26.7" height="12.89" rx="2.2" ry="2.2"/>
        <path class="cls-4" d="m1268.82,446.95h-356.8c-2.41,0-4.37-1.97-4.37-4.37s1.97-4.37,4.37-4.37h356.8c2.41,0,4.37,1.97,4.37,4.37s-1.97,4.37-4.37,4.37Z"/>
        <path class="cls-4" d="m1268.82,465.83h-356.8c-2.41,0-4.37-1.97-4.37-4.37s1.97-4.37,4.37-4.37h356.8c2.41,0,4.37,1.97,4.37,4.37s-1.97,4.37-4.37,4.37Z"/>
      </g>
      <g>
        <path class="cls-17" d="m2345.23,408.98h-184v-107.24h138.38c17.82,17.82,27.81,27.81,45.62,45.62v61.62Z"/>
        <polygon class="cls-29" points="2296.23 301.74 2296.23 358.98 2345.23 358.98 2345.23 347.98 2299.3 302.05 2296.23 301.74"/>
        <polygon class="cls-17" points="2299.61 301.74 2299.61 347.98 2345.23 347.98 2299.61 301.74"/>
        <path class="cls-1" d="m2263.98,341.98h-82c-1.79,0-3.25-1.46-3.25-3.25s1.46-3.25,3.25-3.25h82c1.79,0,3.25,1.46,3.25,3.25s-1.46,3.25-3.25,3.25Z"/>
        <path class="cls-1" d="m2263.98,358.61h-82c-1.79,0-3.25-1.46-3.25-3.25s1.46-3.25,3.25-3.25h82c1.79,0,3.25,1.46,3.25,3.25s-1.46,3.25-3.25,3.25Z"/>
        <path class="cls-1" d="m2263.98,376.11h-82c-1.79,0-3.25-1.46-3.25-3.25s1.46-3.25,3.25-3.25h82c1.79,0,3.25,1.46,3.25,3.25s-1.46,3.25-3.25,3.25Z"/>
      </g>
      <circle class="cls-28" cx="2247.73" cy="309.98" r="5.5"/>
      <rect class="cls-19" x="1424.79" y="294.61" width="116.94" height="141" transform="translate(96.2 -274.75) rotate(10.94)"/>
      <path class="cls-4" d="m1529.75,366.83l-60.87-11.76c-1.62-.31-2.69-1.89-2.38-3.51s1.89-2.69,3.51-2.38l60.87,11.76c1.62.31,2.69,1.89,2.38,3.51-.31,1.62-1.89,2.69-3.51,2.38Z"/>
      <path class="cls-4" d="m1526.81,382.05l-60.87-11.76c-1.62-.31-2.69-1.89-2.38-3.51.31-1.62,1.89-2.69,3.51-2.38l60.87,11.76c1.62.31,2.69,1.89,2.38,3.51-.31,1.62-1.89,2.69-3.51,2.38Z"/>
      <path class="cls-4" d="m1523.79,397.69l-60.87-11.76c-1.62-.31-2.69-1.89-2.38-3.51s1.89-2.69,3.51-2.38l60.87,11.76c1.62.31,2.69,1.89,2.38,3.51s-1.89,2.69-3.51,2.38Z"/>
      <path class="cls-28" d="m1488.54,303.36c-.52,2.71-3.15,4.48-5.86,3.96-2.71-.52-4.48-3.15-3.96-5.86.52-2.71,3.15-4.48,5.86-3.96,2.71.52,4.48,3.15,3.96,5.86Z"/>
      <path class="cls-4" d="m2430.15,559.03l-177.7-18.72,11.73-111.38,140.89,14.84c12.86,15.89,20.07,24.79,32.93,40.68l-7.86,74.58Z"/>
      <polygon class="cls-1" points="2402.56 451.72 2270.29 437.78 2260.4 531.76 2424.83 549.09 2430.63 494.06 2398.46 490.67 2402.56 451.72"/>
      <path class="cls-4" d="m2384.63,485.86l-85.68-9.03c-1.96-.21-3.4-1.98-3.19-3.95s1.98-3.4,3.95-3.19l85.68,9.03c1.96.21,3.4,1.98,3.19,3.95-.21,1.96-1.98,3.4-3.95,3.19Z"/>
      <path class="cls-4" d="m2382.64,504.74l-85.68-9.03c-1.96-.21-3.4-1.98-3.19-3.95.21-1.96,1.98-3.4,3.95-3.19l85.68,9.03c1.96.21,3.4,1.98,3.19,3.95-.21,1.96-1.98,3.4-3.95,3.19Z"/>
      <path class="cls-4" d="m2380.57,524.46l-85.68-9.03c-1.96-.21-3.4-1.98-3.19-3.95.21-1.96,1.98-3.4,3.95-3.19l85.68,9.03c1.96.21,3.4,1.98,3.19,3.95-.21,1.96-1.98,3.4-3.95,3.19Z"/>
      <circle class="cls-28" cx="2330.68" cy="454.65" r="5.5"/>
      <g>
        <path class="cls-22" d="m3313.06,367.77c0,33.88-27.47,61.35-61.35,61.35s-61.35-27.47-61.35-61.35,27.47-61.35,61.35-61.35,61.35,27.47,61.35,61.35Z"/>
        <path class="cls-1" d="m3245.62,388.77s-.07,0-.11,0c-.82-.03-1.6-.4-2.14-1.02l-16.66-18.94c-1.09-1.24-.97-3.14.27-4.23,1.24-1.09,3.14-.97,4.23.27l14.57,16.56,33.34-32.63c1.18-1.16,3.08-1.14,4.24.05,1.16,1.18,1.14,3.08-.04,4.24l-35.6,34.84c-.56.55-1.32.86-2.1.86Z"/>
      </g>
      <g>
        <rect class="cls-4" x="471.04" y="777.93" width="386.67" height="159.34" rx="16.48" ry="16.48" transform="translate(1328.74 1715.2) rotate(180)"/>
        <path class="cls-4" d="m811,913.23v87.91l-101.3-101.3s99.24,13.39,101.3,13.39Z"/>
        <rect class="cls-1" x="491.04" y="793.73" width="346.67" height="127.74" rx="13.97" ry="13.97" transform="translate(1328.74 1715.2) rotate(180)"/>
        <path class="cls-4" d="m648.92,825.32h156.59c3.78,0,6.87-3.09,6.87-6.87s-3.09-6.87-6.87-6.87h-156.59c-3.78,0-6.87,3.09-6.87,6.87s3.09,6.87,6.87,6.87Z"/>
        <rect class="cls-4" x="514.31" y="843.86" width="298.07" height="7.72" rx="3.82" ry="3.82" transform="translate(1326.68 1695.44) rotate(180)"/>
        <rect class="cls-4" x="514.31" y="858.81" width="298.07" height="7.72" rx="3.82" ry="3.82" transform="translate(1326.68 1725.34) rotate(180)"/>
      </g>
      <g>
        <rect class="cls-4" x="3096.41" y="796.5" width="32.71" height="29.44" rx="7.09" ry="7.09" transform="translate(6225.53 1622.44) rotate(180)"/>
        <path class="cls-4" d="m3044.01,796.5h18.54c3.91,0,7.09,3.18,7.09,7.09v15.27c0,3.91-3.18,7.09-7.09,7.09h-18.54c-3.91,0-7.09-3.18-7.09-7.09v-15.27c0-3.91,3.18-7.09,7.09-7.09Z" transform="translate(6106.57 1622.44) rotate(180)"/>
        <rect class="cls-4" x="2977.45" y="796.5" width="32.71" height="29.44" rx="7.09" ry="7.09" transform="translate(5987.61 1622.44) rotate(180)"/>
      </g>
    </g>
  </g>
</svg>